<svg xmlns="http://www.w3.org/2000/svg" viewBox="0 0 821 424" width="821" height="424">
<g transform="translate(0,424) scale(0.1,-0.1)" fill="white" stroke="none">
<path d="M6385 3626 c-42 -18 -83 -69 -91 -112 -11 -60 4 -112 71 -242 36 -70
65 -132 65 -139 0 -7 8 -13 18 -13 12 1 38 43 90 148 66 134 72 152 72 208 0
47 -5 69 -22 94 -43 63 -132 87 -203 56z M1024 3600 c-143 -37 -234 -101 -281
-198 -25 -51 -28 -68 -28 -157 0 -88 3 -107 27 -158 38 -81 133 -172 305 -291
234 -162 304 -248 305 -378 2 -134 -80 -203 -242 -203 -106 1 -175 35 -235
116 -64 86 -96 187 -120 372 -5 36 -10 47 -24 47 -16 0 -18 -18 -24 -212 -4
-116 -7 -246 -7 -290 0 -77 0 -78 25 -78 19 0 25 5 25 21 0 31 18 59 39 59 10
0 47 -13 83 -29 113 -52 180 -65 328 -65 153 0 239 17 336 64 80 39 143 96
179 161 28 51 30 60 30 169 0 107 -2 119 -29 173 -42 83 -130 165 -322 302
-199 142 -265 201 -293 258 -24 50 -28 132 -7 180 38 91 162 131 281 90 114
-38 223 -208 249 -385 6 -42 10 -48 32 -48 l24 0 0 224 c0 123 3 231 6 240 5
12 0 16 -18 16 -20 0 -27 -7 -37 -40 -10 -33 -16 -40 -37 -40 -14 0 -44 11
-67 24 -23 14 -77 36 -119 50 -65 22 -94 26 -195 25 -82 0 -140 -6 -189 -19z
M3812 3258 c-19 -6 -55 -31 -82 -55 l-48 -43 -44 25 c-69 39 -161 58 -278 58
-288 0 -443 -125 -428 -343 9 -126 82 -215 212 -260 33 -11 68 -20 78 -20 31
0 19 -14 -53 -60 -38 -24 -81 -61 -95 -81 -55 -80 -51 -170 9 -236 19 -22 28
-23 150 -23 l130 0 -46 -31 c-210 -139 -339 -474 -324 -844 10 -257 69 -421
194 -542 73 -69 125 -87 247 -81 115 5 156 25 253 124 165 167 253 447 240
769 -11 275 -84 460 -225 570 l-45 35 147 0 146 0 -6 28 c-11 43 -30 74 -66
108 -79 75 -153 94 -401 102 -181 6 -200 9 -213 26 -21 29 -17 61 11 94 24 28
28 30 132 35 179 8 290 62 348 168 27 49 30 63 30 144 0 83 -3 95 -33 149
l-32 60 30 31 c16 17 44 39 61 49 l31 18 -8 -23 c-5 -13 -9 -50 -9 -82 0 -52
3 -62 28 -83 20 -17 40 -24 68 -24 106 0 146 157 57 223 -32 24 -117 32 -166
15z m-411 -78 c30 -40 41 -132 37 -295 -3 -123 -7 -157 -23 -189 -25 -49 -48
-65 -72 -50 -10 6 -27 28 -38 50 -18 35 -20 59 -20 214 0 193 6 235 36 275 26
32 55 30 80 -5z m184 -1054 c128 -59 221 -237 248 -474 26 -236 -58 -534 -200
-706 -50 -61 -135 -120 -191 -131 -30 -6 -33 -4 -44 25 -14 42 -59 62 -102 47
-28 -10 -32 -8 -67 31 -70 80 -123 225 -142 390 -10 88 -9 121 6 223 44 303
186 544 357 605 51 19 79 17 135 -10z M4952 3258 c-19 -6 -55 -31 -82 -55
l-48 -43 -44 25 c-69 39 -161 58 -278 58 -288 0 -443 -125 -428 -343 9 -126
82 -215 212 -260 33 -11 68 -20 78 -20 31 0 19 -14 -53 -60 -38 -24 -81 -61
-95 -81 -55 -80 -51 -170 9 -236 18 -20 30 -23 100 -23 l80 0 -45 -35 c-73
-57 -120 -123 -161 -225 -41 -105 -58 -196 -64 -345 -13 -322 75 -602 240
-769 97 -99 138 -119 253 -124 122 -6 174 12 247 81 125 121 184 285 194 542
15 370 -114 705 -324 844 l-46 31 196 0 197 0 -6 28 c-11 43 -30 74 -66 108
-79 75 -153 94 -401 102 -181 6 -200 9 -213 26 -21 29 -17 61 11 94 24 28 28
30 132 35 179 8 290 62 348 168 27 49 30 63 30 144 0 83 -3 95 -33 149 l-32
60 30 31 c16 17 44 39 61 49 l31 18 -8 -23 c-5 -13 -9 -50 -9 -82 0 -52 3 -62
28 -83 64 -55 159 -14 173 75 8 48 16 51 42 14 23 -32 502 -1088 502 -1106 0
-23 -48 -112 -71 -134 -36 -33 -92 -53 -146 -53 l-48 0 40 23 c22 12 50 38 63
57 20 29 23 44 20 92 -7 91 -61 131 -178 131 -116 0 -190 -59 -190 -151 0
-114 106 -184 280 -185 125 0 188 32 231 116 25 48 48 114 235 666 84 250 166
475 182 500 15 25 42 55 60 66 17 11 31 29 32 40 0 19 -7 20 -180 20 l-180 0
0 -22 c0 -15 6 -23 18 -23 35 0 83 -40 104 -87 17 -40 20 -60 16 -137 -5 -74
-15 -121 -59 -253 -29 -90 -56 -163 -59 -163 -10 0 -250 579 -250 604 0 26 8
30 78 41 31 5 42 11 40 22 -3 13 -45 15 -298 16 l-295 2 -32 24 c-37 28 -118
37 -171 19z m-411 -78 c30 -40 41 -132 37 -295 -3 -123 -7 -157 -23 -189 -25
-49 -48 -65 -72 -50 -10 6 -27 28 -38 50 -18 35 -20 59 -20 214 0 193 6 235
36 275 26 32 55 30 80 -5z m129 -1074 c69 -42 140 -127 192 -230 56 -111 85
-205 105 -345 15 -102 16 -135 6 -223 -19 -165 -72 -310 -142 -389 -32 -36
-39 -39 -61 -31 -38 15 -85 -8 -99 -48 -10 -31 -13 -32 -48 -26 -99 18 -211
124 -285 270 -56 111 -85 205 -105 345 -15 102 -16 135 -6 223 27 237 119 414
248 475 65 31 120 25 195 -21z M2265 3240 c-84 -9 -147 -26 -196 -51 -124 -63
-171 -176 -116 -280 31 -58 74 -82 146 -82 110 0 184 67 184 167 0 75 -32 125
-109 172 -18 11 -17 13 11 24 45 18 127 16 157 -4 50 -33 63 -77 63 -223 0
-126 -1 -132 -25 -158 -33 -35 -74 -55 -195 -95 -135 -44 -204 -80 -249 -130
-48 -53 -58 -80 -58 -160 -1 -82 24 -142 80 -192 49 -45 94 -58 192 -58 93 0
157 27 217 93 l42 45 11 -32 c14 -42 57 -84 101 -96 51 -15 189 -12 245 5 27
8 64 24 83 36 30 18 32 22 19 35 -13 13 -18 13 -43 0 -20 -10 -33 -12 -41 -5
-9 7 -13 111 -17 387 -3 241 -9 390 -16 413 -28 91 -108 158 -207 177 -88 16
-200 21 -279 12z m124 -892 c-26 -22 -87 -23 -116 -3 -49 34 -56 161 -14 243
12 23 49 74 84 114 l62 73 3 -205 c3 -199 2 -206 -19 -222z M7063 3240 c-117
-17 -219 -75 -270 -152 -23 -35 -29 -55 -32 -120 -3 -73 -1 -85 30 -146 27
-55 58 -93 185 -217 84 -82 160 -163 170 -178 40 -66 36 -172 -9 -202 -67 -44
-150 -25 -223 49 -55 57 -86 123 -108 231 -8 39 -17 61 -27 63 -13 2 -17 -18
-22 -134 -12 -235 -10 -264 13 -264 11 0 20 5 20 10 0 6 11 22 24 35 22 22 28
23 63 13 21 -5 59 -21 85 -34 193 -98 490 -14 569 159 12 28 19 65 19 112 0
129 -55 207 -271 381 -139 113 -171 154 -177 229 -4 50 -2 57 25 84 79 78 223
29 284 -96 12 -24 29 -75 38 -111 12 -46 23 -68 34 -70 15 -3 17 8 17 101 0
57 3 138 6 180 6 71 6 77 -12 77 -11 0 -27 -13 -36 -30 -20 -35 -31 -36 -90
-12 -87 38 -216 55 -305 42z"/>
</g>
</svg>
